<svg width="104" height="34" viewBox="0 0 104 34" fill="none" xmlns="http://www.w3.org/2000/svg">
<path d="M35.84 27.66L38.288 16.86H29.036L26.552 27.66H22.52L28.244 3H32.24L29.864 13.368H39.116L41.528 3H45.524L39.836 27.66H35.84Z" fill="#F2F2F2"/>
<path d="M57.6225 27.66V22.512H49.5585L47.0745 27.66H43.0425L54.6705 3H61.8345L61.6185 27.66H57.6225ZM57.0105 6.492L51.1065 18.984H57.7305L57.9105 6.492H57.0105Z" fill="#F2F2F2"/>
<path d="M74.6418 20.028H70.5738L68.8098 27.66H64.7778L70.5018 3H77.8818C80.3058 3 82.0698 3.516 83.1738 4.548C84.2778 5.58 84.8298 7.224 84.8298 9.48C84.8298 12.792 83.9298 15.384 82.1298 17.256C80.3298 19.104 77.8338 20.028 74.6418 20.028ZM75.2178 16.536C76.9698 16.536 78.3258 15.9 79.2858 14.628C80.2458 13.356 80.7258 11.652 80.7258 9.516C80.7258 8.484 80.4738 7.728 79.9698 7.248C79.4898 6.744 78.6858 6.492 77.5578 6.492H73.6698L71.3658 16.536H75.2178Z" fill="#F2F2F2"/>
<path d="M87.8569 6.492L88.6849 3H103.697L102.689 7.428L88.4689 23.268L88.2529 24.168H98.8009L97.9729 27.66H82.9609L83.9329 23.304L98.0809 7.392L98.2969 6.492H87.8569Z" fill="#F2F2F2"/>
<path d="M20 11.4507H12.3752L16.9816 0H5.28324L0 19.6997H7.28725L3.77362 33.1994L20 11.4507Z" fill="#F2994A"/>
<path d="M6.43762 2.08636H13.6016L7.14886 4.16551L3.20245 13.5029C3.20245 13.5028 6.43762 2.08636 6.43762 2.08636Z" fill="#F5DD9D"/>
</svg>
